<?xml version="1.0" encoding="UTF-8"?><svg id="_レイヤー_2" xmlns="http://www.w3.org/2000/svg" viewBox="0 0 848.94 910.6"><defs><style>.cls-1{fill:#00aafd;}</style></defs><g id="_レイヤー_1-2"><g><path class="cls-1" d="M705.76,784.92c-1.37,1.39-2.58,2.99-4.13,4.15-18.16,13.63-37.28,25.77-58.01,35.07-16.21,7.27-32.54,14.41-49.24,20.4-20.67,7.41-42.13,12.28-63.96,14.89-16.32,1.95-32.76,3-49.16,4.29-4.29,.34-8.63,.05-12.94,.55h50.16c.24-.32-.27,.35-1.03,1.35,1.62,.14,3.03,.26,4.97,.44-1.44,.43-2.44,.72-3.44,1.02,.06,.38,.13,.75,.19,1.13,4.78-.72,9.61-1.22,14.33-2.24,3.16-.68,5.75-2.26,9.55-1.66,3.99,.63,8.4-1.5,12.65-2.32,53.09-10.32,101.08-32.7,146.22-61.8,4.33-2.79,8.11-6.41,12.4-9.27,7.79-5.21,15.8-10.1,23.64-15.23,.98-.64,1.37-2.13,2.28-2.96,1.83-1.69,3.77-3.28,5.78-4.77,1.15-.85,2.78-1.16,3.75-2.15,8.78-8.86,18.35-17.12,25.99-26.88,14.33-18.32,27.54-37.53,41.21-56.37,.37-.52,.79-1,1.27-1.61,2.48,8.47,2.05,8.22-1.74,14.74-14.39,24.75-32.41,46.7-51.67,67.71-3.94,4.29-8.27,8.23-12.13,12.59-1.79,2.02-2.47,5.08-4.38,6.9-7.29,6.98-14.87,13.67-22.37,20.43-1.41,1.27-2.98,2.35-4.48,3.51,.25,.38,.51,.75,.76,1.13,8.69-5.51,17.38-11.02,26.07-16.54,.17,.16,.33,.31,.5,.47-5.59,4.85-11.04,9.86-16.79,14.51-28.28,22.89-59.71,40.35-93.43,53.83-11.1,4.44-22,9.44-33.26,13.42-13.81,4.88-27.7,9.84-41.94,13.14-14.61,3.39-29.63,5.32-44.56,6.97-12.41,1.37-24.97,1.4-37.46,2.03-.33,.02-.7-.09-.99,.02-10.71,4.18-21.43-.51-32.15-.03-3.78,.17-7.59-.43-11.94-.72,1.02,.82,1.74,1.4,2.46,1.98-.08,.38-.16,.76-.24,1.14-5.26-1.55-10.52-3.1-15.78-4.65-.08,.26-.16,.52-.24,.78,.73,.37,1.46,.75,2.19,1.12-.08,.46-.15,.93-.23,1.39-15.16-2.33-30.32-4.66-45.56-7.01,15.02,7.21,86.57,15.57,107.66,12.32-2.84-.48-4.69-.8-6.54-1.12,.03-.21,.06-.43,.08-.64,5.03,.57,10.09,1.75,15.1,1.59,10.24-.31,20.51-.83,30.66-2.16,21.54-2.83,43.12-5.73,64-11.99,10.59-3.17,20.92-7.18,31.35-10.88,9.66-3.42,19.35-6.76,28.9-10.46,6.59-2.56,12.96-5.67,19.66-7.86-87.03,43.43-178.44,57.39-274.59,38.42,.01,.75,.02,1.49,.04,2.24,13.57,2.15,27.09,4.7,40.72,6.34,13.02,1.56,26.15,2.18,39.23,3.21-.05,.54-.1,1.08-.15,1.61-6.07,0-12.16-.29-18.21,.06-12.3,.72-24.12-2.52-36.18-3.81-27.26-2.92-53.83-9.01-79.58-18.2-17.67-6.31-34.82-14.07-52.18-21.22-.87-.36-1.61-1.05-2.41-1.59-.74-.81-1.33-1.87-2.23-2.37-8.25-4.58-16.55-9.06-24.83-13.57-1.39-.26-2.77-.51-4.16-.77-.32,.27-.64,.54-.97,.8,4,8.5,12.52,12.31,19.43,17.79-.26,.39-.51,.79-.77,1.18-6.88-3.34-13.9-6.42-20.59-10.09-8.56-4.69-17.22-9.35-25.17-14.95-10.01-7.06-20.05-14.34-28.86-22.79-22.44-21.52-43.76-44.23-66.5-65.41-7.01-6.53-12.59-13.97-18.71-21.04-4.81-5.56-8.09-12.43-12.02-18.66-1.77,.3-4.41,2.77-2.95-2.1,.52-1.74-2.86-4.62-4.41-7.02-.92-1.41-1.89-2.81-2.58-4.33-.74-1.63-.89-3.56-1.79-5.06-5.25-8.78-11.16-17.21-15.83-26.28-4.41-8.56-7.54-17.78-11.27-26.69-2.06-4.93-4.34-9.77-6.3-14.74-2.95-7.49-5.76-15.04-8.52-22.61-1.49-4.08-2.75-8.25-5.09-12.16v7.11c-.14,0-.28,0-.43,.01-.94-3.57-1.88-7.15-2.82-10.72,1.01-.62,2.02-1.24,3.56-2.18-1.32-2.54-2.76-5.34-4.21-8.14-.43,.2-.86,.39-1.29,.59,.26,1.24,.53,2.48,.79,3.71-.92-.43-1.84-.86-3-1.4,.05-.28,.74-1.63,.38-2.58-1.82-4.71-4.35-9.18-5.81-13.99-1.53-5.02-2.31-10.29-3.07-15.5-.89-6.08-.02-12.81-2.35-18.21-5.03-11.64-2.42-23.62-3.27-35.38-.87-12.07,.09-24.27,.41-36.42,.27-10.1,.67-20.2,1.23-30.28,.12-2.2,1.17-4.36,1.79-6.54,0,9.75,0,19.51,0,29.26,1.92-9.17,2.81-18.37,3.53-27.59,.07-.9-.86-1.89-1.33-2.83-.77,.44-1.53,.87-2.3,1.31,2.18-20.31,4.37-40.63,6.55-60.94-.45-.08-.91-.17-1.36-.25-2.87,16.13-5.81,32.25-8.58,48.4-2.76,16.07-4.39,32.26-4.24,48.57,.16,16.76-.27,33.59,1.16,50.26,1.42,16.53,5.2,32.84,7.25,49.33,2.02,16.18,6.57,31.7,10.59,47.4,3.93,15.36,11.45,29.3,15.72,45.07,1.32-1.24,1.94-1.83,2.68-2.52,.26,.8,.79,1.54,.62,2.04-2.04,5.8,.37,10.62,3,15.54,2.73,5.12,4.89,10.55,7.69,15.64,3.72,6.75,8.51,12.98,11.6,19.98,7.34,16.62,17.78,31.29,28.27,45.84,7.58,10.51,16.83,19.82,25.15,29.81,5.2,6.25,10.06,12.79,15.09,19.18,.41,.52,.92,.96,1.38,1.44,7.55,7.78,15.1,15.56,22.65,23.35-.45,.52-.91,1.03-1.36,1.55-2.47-2.06-5.1-3.97-7.37-6.22-5.42-5.37-10.78-10.81-15.96-16.41-9.02-9.75-18.04-19.51-26.78-29.52-7.36-8.43-14.22-17.24-20.14-26.81-10.3-16.65-21.21-32.93-31.34-49.68-5.92-9.78-11.42-19.9-16.03-30.35-4.66-10.57-7.38-21.99-12.04-32.56-7.02-15.91-8.69-33.17-13.65-49.58-3.94-13.03-6.58-26.45-9.57-38.78-1.63,6.42-.39,14.03,.64,21.61,.63,4.59,1.57,9.15,2.63,13.66,2.32,9.81,4.9,19.56,7.17,29.39,.76,3.29,.44,6.85,1.4,10.06,1.43,4.83,3.96,9.35,5.24,14.21,1.01,3.81,.83,7.94,.18,12C-.6,561.04-8.36,474.1,8.98,384.95c-1.67,18.11-3.98,36.19-4.81,54.34-.83,18.15-.18,36.37-.18,54.69,1.56-3.45,3.24-6.55,4.31-9.85,.45-1.38,.16-3.96-.78-4.65-3.29-2.41-1.71-4.95-1.33-7.87,.54-4.13,.17-8.38,.19-12.58,.05-9.17-.54-18.4,.32-27.5,1.3-13.73,3.05-27.48,5.69-41,1.75-8.97,5.43-17.56,8.15-26.34,1.14-3.7,2.03-7.47,2.04-11.53-.61,.89-1.22,1.78-1.86,2.71-.11-.25-.33-.51-.29-.7,3.4-13.49,5.57-27.34,11.84-39.97,.78-1.58,2.01-2.93,3-4.42,.45-.68,1.17-1.43,1.14-2.12-.4-10.11,4.92-18.58,8.28-27.48,4.3-11.38,9.78-22.34,15.28-33.22,2.17-4.29,5.75-7.85,9.31-11.58-1.12,2.98-2.25,5.95-3.37,8.93,.53,.21,1.06,.43,1.59,.64,14.15-26.39,30.79-51.08,50.57-75.23-2.29,1.45-3.53,2.24-4.78,3.04-.31-.4-.62-.79-.94-1.19,1.82-1.34,3.61-2.71,5.46-4,1.83-1.27,4.31-2.06,5.46-3.77,3.66-5.46,6.22-11.74,10.36-16.76,4.29-5.2,9.92-9.3,14.98-13.86,6.14-5.55,11.68-12.16,18.7-16.2,3.81-2.19,5.22-5.97,8.81-7.87,3.95-2.09,7.57-4.83,11.27-7.36,1.71-1.17,3.28-2.54,5.66-3.23-.26,.79-.53,1.58-.58,1.74,15.02-10.93,30.47-22.16,45.91-33.39,.24,.55,.49,1.11,.73,1.66,1.94,0,3.95,.32,5.79-.1,1.55-.35,2.92-1.54,4.34-2.4,4.12-2.49,7.83-5.43,13.3-5.28,2.82,.08,5.69-2.47,8.59-3.72,6.38-2.76,12.82-5.4,19.2-8.17,11.55-5.01,23.05-10.16,34.65-15.07,2.35-1,5.05-1.16,7.55-1.85,7.73-2.11,15.4-4.46,23.17-6.39,9.58-2.39,18.44-6.99,28.71-7.53,8.52-.45,16.85-3.74,25.38-4.99,11.02-1.62,22.14-2.55,33.23-3.6,8.91-.85,17.84-1.59,26.78-2.1,11.36-.64,22.74-.99,34.17-1.66-1.87,.27-3.74,.54-5.61,.81-.03,.27-.07,.53-.1,.8,4.53,.58,9.06,1.21,13.6,1.72,18.46,2.06,36.97,3.74,55.36,6.24,10.6,1.44,21.11,3.82,31.48,6.46,7.23,1.84,13.99,5.76,21.27,7.12,13.86,2.58,26.25,8.87,39.15,13.88,3.1,1.2,7.08,2.94,8.31,5.54,2.41,5.11,9.25,5.17,10.72,11.53-52.07-24.27-106.62-38.09-163.29-43.66-.12,.41-.24,.81-.37,1.22,1.7,.62,3.6,.95,5,1.97,.72,.52,.57,2.26,.86,3.64-1.49,.31-3.93,.83-6.37,1.34,.01,.38,.03,.76,.04,1.14h15.78c-1.11-.52-2.28-1.07-3.45-1.62,.11-.11,.32-.45,.51-.45,9.57,.21,19.14-.5,28.56,2.72,4.05,1.39,9.03-.17,13.3,.83,8.85,2.07,17.59,4.7,26.23,7.56,18.23,6.02,36.43,12.13,54.49,18.63,5.05,1.82,9.43,5.38,14.32,7.72,11.02,5.29,22.16,10.33,33.12,16.37h-4.91c-4.11-1.86-8.23-3.72-12.34-5.58-3.9-.83-7.97-1.19-11.66-2.58-11.95-4.5-23.66-9.64-35.67-13.98-5.95-2.15-12.37-3.01-18.54-4.61-5.92-1.54-11.73-3.47-17.68-4.88-6.96-1.66-14.01-2.88-21-4.43-8.18-1.81-16.34-3.76-24.5-5.65-.97-.23-1.94-.71-2.91-.69-20.36,.56-40.47-5.86-60.88-2.51-5.74,.94-11.24,3.35-17.46,5.27,19.62,.73,38.61,.78,57.48,2.33,18.75,1.54,37.71,3.13,54.43,13.53,1.02,9.9-7.97,5.95-13.01,8.3,.95,3.66,4.27,4.16,7.49,5.07,5.91,1.67,11.72,3.74,17.65,5.34,9.2,2.49,18.44,4.83,27.71,6.99,1.38,.32,3.54-.17,4.45-1.13,.74-.77,.15-2.82,.15-4.16,11.12,2.84,29.4,12.55,32.72,18.31-4.61-.65-8.47-1.19-13.17-1.85,7.91,3.87,15,7.35,22.95,11.24-2.21,1.49-3.71,2.49-5.82,3.91,4.13,9.73,14.6,10.33,21.86,15.54,.3-.34,.6-.68,.9-1.02-.49-.95-.97-1.9-1.46-2.85,.2-.37,.39-.73,.59-1.1,12.97,7.68,25.95,15.36,38.92,23.04,.3-.49,.59-.97,.89-1.46-4.84-3.48-9.68-6.95-14.52-10.43,.19-.31,.37-.61,.56-.92,3.57,2.22,7.22,4.31,10.68,6.69,8.36,5.76,16.08,12.77,25.08,17.22,13.2,6.53,22.42,17.66,33.71,26.33,5.61,4.31,10.01,10.15,15.26,14.97,7.4,6.8,11.85,15.76,17.94,23.62-8.85-2.1-11.78-11.25-18.93-15.98,5.65,10.19,11.08,19.98,16.7,30.12-1.56,.38-2.39,.58-3.11,.76,4.19,9.17,8.32,18.22,12.45,27.27-.47,.22-.93,.45-1.4,.67-1.46-3.23-2.93-6.46-4.39-9.69-.54,.24-1.08,.48-1.61,.71,.55,8.26,5.96,14.5,10.81,22.66-3.36-.88-5.23-1.37-6.56-1.72-.96,5.27-1.94,10.64-3.03,16.61-5.36-4.96-9.44-9.02-13.81-12.74-7.16-6.09-14.61-11.85-21.73-18-2.24-1.94-4.38-4.41-5.56-7.09-2.26-5.15-14.67-22.51-19.11-25.18,1.77,3.64,3.42,6.64,4.7,9.79,1.28,3.14,.27,4.38-3.37,4.04-6.2-.57-10.89-3.68-16.11-6.8-6.51-3.88-7.91-10.05-11.28-15.57-4.15-6.78-6.05-14.97-12.28-20.42-2.84-2.49-6-4.62-8.89-6.82-1.23,1.4-2.23,2.53-3.75,4.27,1.96,.75,3.66,1.41,5.27,2.03,1.29,5.59,3.36,11.12,3.67,16.75,.47,8.42,6.69,12.43,11.63,17.4,16.61,16.67,34.74,31.83,48.44,51.31,6.55,9.32,13.26,18.8,21.37,26.7,8.76,8.53,12.92,19.04,16.66,29.89,1.96,5.69,2.11,11.99,3.29,17.97,.33,1.68,1.13,3.43,2.18,4.78,1.31,1.69,2.91,3.29,4.71,4.41,7.57,4.71,8.46,12.04,.23,19.66-2.77-6.73-5.48-13.29-8.19-19.85-.42,.1-.83,.2-1.24,.3-.36,3.09-.71,6.19-1.01,8.78-2.84,1.46-4.16-3.99-6.52-.22-1.48-1.28-3.29-2.34-4.39-3.89-3.7-5.23-7.16-10.64-10.7-15.97-4.16,2.72-6.34,9.56-5.54,13.59,.5,2.52-.54,5.38-1.07,8.05-.44,2.19-1.35,4.3-1.65,6.5-.2,1.43,.41,2.95,.5,4.44,.1,1.65,.02,3.31-.74,5.14-1.08-4.35-1.89-8.79-3.31-13.03-1.26-3.77,.27-9.35-7.04-10.95,0,2.94-.71,5.55,.12,7.52,3.39,8.04,.54,15.89-.05,23.82-.12,1.64-.17,3.28-.91,5.07-.3-1.47-1.01-3.01-.82-4.42,1.04-7.56-.81-14.07-5.21-20.44-3.01-4.36,.28-11.89,4.66-13.8-1.53-3.74-3.42-7.37-4.5-11.22-1.63-5.85-.95-6.38,5.92-5.22-1.17-6.76-2.17-13.3-3.45-19.79-2.5-12.69-7.98-23.89-15.08-34.81-6.87-10.56-11.43-22.62-17.11-34.23,.98,.38,2.04,.79,3.11,1.21,.37-.31,.74-.62,1.1-.93-6.43-8.35-12.86-16.69-19.78-25.68-.62,1.63-1.01,2.13-.9,2.44,2.29,6.35,1.08,12.51-.31,18.86-.57,2.63,.48,5.87,1.54,8.55,3.83,9.7,1.12,18.91-1.56,28.18-.63,2.17-1.14,4.38-1.92,6.5-.29,.78-1.08,1.63-1.84,1.95-5.05,2.14-10.15,4.14-13.99,5.69-6.42-3.81-11.92-7.14-17.48-10.35-3.02-1.74-6.49-2.87-9.13-5.04-2.5-2.06-4.18-5.12-6.22-7.74,.45-.45,.91-.9,1.36-1.34,6.89,3.39,13.79,6.78,20.68,10.18-6.05-12.84-18.12-19.44-27.63-29.16,1.27,.21,2.17,.37,3.73,.63-2.79-3.2-4.2-6.39-8.61-7.94-3.79-1.33-6.53-5.63-9.73-8.62-.56,.2-1.12,.4-1.69,.6-.51,2.09-1.03,4.17-1.8,7.3-4.29,0-9.51,0-14.72,0-.27,0-.56-.09-.82-.19-5.53-2.27-11.05-4.55-17.27-7.11-1.02,5.74-3.74,4.84-6.58,3.08-2.26-1.4-4.31-3.18-6.66-4.39-3.52-1.8-7.23-3.25-11.65-5.19-.52-.69-1.45-2.97-3.16-4.05-5.16-3.27-10.62-6.06-15.98-9.06,2.12,.12,4.25,.24,6.39,.37,.15-.65,.3-1.31,.46-1.96-2.92-.99-5.84-1.99-8.76-2.98-.29,.37-.59,.75-.88,1.12,.99,1.19,1.98,2.38,2.97,3.57-2.08-.5-4.15-1-6.43-1.55-.14,1.95-.26,3.66-.42,5.95-1.16-.55-2.29-.71-2.72-1.34-3.36-5.01-8.62-5.98-13.97-7.26-6.73-1.61-13.34-3.78-19.95-5.88-5.23-1.66-10.27-4.21-15.61-5.21-5.99-1.13-12.26-.65-18.33-1.43-7.63-.98-15.02-.49-22.48,1.33-1.73,.42-3.86-1.07-5.86-1.4-1.69-.28-4.3-.87-4.99-.05-1.36,1.6-2.02,1.98-3.51,.5-.28-.27-1.11-.38-1.42-.17-6.62,4.49-14.35,.06-21.24,2.74-6.58,2.56-13.28,4.8-19.97,7.07-8.06,2.73-16.17,5.32-24.24,8.03-1.42,.48-2.75,1.24-4.12,1.88-.23-.48-.46-.97-.69-1.45,3.2-1.55,6.41-3.09,10.01-4.83-1.4-.2-2.43-.35-3.45-.49l-.32-.98c6.07-2.06,12.14-4.12,19.15-6.5-10.76-2.02-19.03,3.25-27.85,5.53-6.03,1.56-11.87,3.94-17.68,6.23-2.26,.89-4.19,2.59-6.31,3.86-11.25,6.74-22.51,13.46-33.78,20.17-4.14,2.46-8.41,4.72-12.46,7.33-2.71,1.75-5.11,3.96-8.13,6.33,.42-1.11,.67-1.74,1.1-2.88-1.7,.47-3.11,.85-5.63,1.54,4.52-3.27,8.09-5.95,11.75-8.48,9.8-6.78,19.5-13.71,29.53-20.14,4.39-2.82,9.53-4.45,14.24-6.79,4.42-2.2,8.62-4.85,13.11-6.89,7.14-3.23,14.45-6.12,21.69-9.14,.39-.16,.82-.37,1.23-.36,2.53,.09,5.05,.23,7.58,.36,.04-.53,.08-1.07,.12-1.6-1.04-.24-2.08-.48-3.32-.76,2.07-2.33,4.02-4.52,5.97-6.72-.18-.47-.37-.95-.55-1.42-6.06,1.15-12.13,2.27-18.19,3.47-1.09,.21-2.15,1.06-3.18,1-9.57-.54-17.36,3.75-25.18,8.56-5.69,3.5-12.13,5.79-17.89,9.2-4.02,2.38-7.47,5.74-11.17,8.65-.97-.41-2.48-1.42-2.81-1.12-4.75,4.33-12.63,5-15.04,14.04,6.57-4.83,12.18-8.95,17.78-13.07,2.43-.76,4.86-1.52,7.54-2.36,3.77,4.69,3.34,6.24-2.46,9.26-4.1,2.14-7.68,5.9-11.97,6.91-9.79,2.31-14.43,10.88-21.66,16.21-7.31,5.38-13.93,11.69-20.92,17.51-2.1,1.76-4.41,3.27-7.22,5.32,1.46-2.56,2.59-4.56,3.73-6.56l-1.36-1.17c-3.95,3.65-7.91,7.31-11.86,10.96,.22,.27,.44,.55,.66,.82,2.18-3.06,4.35-6.13,6.53-9.19-.45-.33-.9-.66-1.35-1-6.64,8.06-13.28,16.13-19.05,23.13-2.38,1.14-4.42,1.44-5.14,2.58-9.79,15.59-21.09,30.27-27.69,47.75-1.83,4.85-5.04,9.18-7.59,13.77-.77,1.39-1.62,2.79-2.09,4.29-.65,2.06-.11,4.76-3.65,4.77-.55,0-1.28,1.8-1.62,2.86-.77,2.37-1.46,4.78-1.99,7.21-3.95,18.44-7.97,36.86-11.67,55.34-.95,4.75-.2,9.87-1.36,14.54-1.48,6.01,.71,11.61,.59,17.39-.12,5.69-.61,11.37-.57,17.06,.02,1.97,1.14,3.94,1.78,5.91,.15,.47,.68,1.16,.53,1.35-3.55,4.53,1.94,8.75,.35,13.24-.35-1.65-.69-3.26-1.03-4.87-.66,.08-1.32,.17-1.98,.25,.89,10.35,1.77,20.7,2.66,31.05,.54-.02,1.09-.04,1.63-.07,.16-1.69,.32-3.39,.63-6.6,1.52,3.11,2.75,4.88,3.28,6.85,1.9,7.03,4.03,14.04,5.23,21.2,2.25,13.4,8.41,25.38,13.36,37.73,4.93,12.29,11.2,24.07,17.47,35.76,2.69,5.02,6.86,9.25,10.31,13.88,.65,.88,1.04,1.95,1.54,2.93-.37,.3-.74,.6-1.11,.9-2.13-2.27-4.74-4.25-6.29-6.86-6.71-11.3-13.76-22.47-19.46-34.28-6.53-13.55-11.76-27.73-17.56-41.64-.18-.42-.45-.81-1.46-1.09,.15,1.31,.12,2.68,.49,3.93,1.26,4.27,2.9,8.44,3.93,12.76,.62,2.62-.29,5.71,.66,8.13,3.92,9.97,8.24,19.78,12.5,29.61,2.64,6.1,5.23,12.23,8.24,18.15,1.52,2.99,4.11,5.42,5.84,8.33,.92,1.54,.75,3.7,1.56,5.33,1.52,3.06,3.24,6.06,5.16,8.89,7.24,10.64,14.41,21.34,22,31.72,2.57,3.52,6.45,6.06,9.54,9.23,12.19,12.55,24.97,24.34,39.21,34.64,20.76,15.03,43.19,26.64,66.61,36.96,12.73,5.61,25.87,8.79,39.09,12.15,9.62,2.45,19.37,4.44,29.12,6.37,10.61,2.1,21.28,3.92,31.94,5.8,9.04,1.59,18.05,3.79,27.16,4.4,7.19,.48,14.51-1.29,21.79-1.61,7.96-.34,15.79-3.09,23.89-1.21,1.23,.28,2.65-.1,3.95-.34,11.25-2.11,22.75-3.37,33.64-6.68,8.22-2.5,16.73-3.59,24.74-6.16,13.16-4.22,25.74-10.24,38.57-15.49,.45-.18,.96-.2,2.32-.46-.31,1.85-.06,4.2-.93,4.75-1.94,1.22-4.44,1.58-6.74,2.18-.77,.2-1.63,.04-2.45,.05,.26,.55,.87,1.43,.71,1.6-1.04,1.15-2.25,2.15-3.52,3.31,3.77,5.38,7.72-2.44,11.94,1.06-10.33,5.98-20.7,11.98-31.07,17.98,.34,.67,.69,1.34,1.03,2.01,4.94-1.7,10.01-3.08,14.79-5.14,40.4-17.47,75.87-42.12,106.63-73.56,6.24-6.38,12.87-12.54,18.12-19.69,12.07-16.44,23.94-33.07,34.84-50.29,8.56-13.52,16.25-27.7,23.03-42.2,5.89-12.61,12.35-25.26,13.33-39.67,.14-2.03,1.89-3.9,2.4-5.96,.93-3.78,1.52-7.64,2.19-11.49,.34-1.94-1.37-4.66,2.22-5.32,.41-.08,1.06-1.2,.92-1.62-2.01-6.31,3.36-10.96,3.66-16.85,.34-6.78,1.96-13.49,2.59-20.27,.62-6.59,.73-13.22,1.02-19.84,.51-11.84,1.32-23.69,1.36-35.53,.03-7.94-1.06-15.89-1.65-23.84,.55-.11,1.09-.22,1.64-.33,.99,5.39,1.97,10.77,2.98,16.27,.63-.81,1.41-1.8,2.83-3.62,.85,8.35,1.48,15.72,2.42,23.04,.36,2.81,1.46,5.52,2.21,8.29,.29,1.09,.75,2.2,.75,3.3,0,11.6-.11,23.2-.12,34.8,0,2.5,.25,5,.39,7.5,.47-.02,.94-.04,1.41-.05,.07-1.64,.15-3.28,.22-4.91,.25,0,.5,0,.75,0,0,2.85,.31,5.75-.05,8.56-3.02,23.56-5.95,47.17-13.44,69.85-4.77,14.46-10.69,28.55-15.07,43.11-4.12,13.71-11.56,25.59-17.92,38.14-4.62,9.12-9.71,17.72-15.68,25.86-.28,.55-.58,1.15-.88,1.75-4.21,5.04-8.43,10.08-12.64,15.12,0,0,.12-.18,.12-.18-1.1,.92-2.34,1.7-3.27,2.77-19.99,23.06-41.78,44.18-66.53,62.14-1.3,.95-2.3,2.31-3.45,3.49,.25,.26,.5,.53,.75,.79,1.66-.97,3.32-1.95,4.99-2.92Zm-362.62,50.26c5.56,5.62,13.04,6.5,19.92,9.04,18.38,6.8,37.51,10.11,56.72,12.74,15.68,2.15,31.55,2.84,47.35,4.04,1.44,.11,2.97-.83,4.45-1.28-21.8-1.94-43.36-3.76-64.45-8.37-21.48-4.7-42.67-10.72-63.99-16.16ZM398.36,23.05c2.68,.13,7.05-.46,7.43,.5,2.14,5.45,5.85,1.4,8.66,1.89,.97,.17,2.12-1.31,3.28-1.52,6.19-1.1,12.37-2.33,18.61-2.95,7.22-.71,14.49-.82,21.75-1.2,13.09-.68,26.17-1.35,39.26-2.03-10.27-4.48-89.73,.36-98.99,5.3Zm72.27,30.37l.81,1.42c1.12-.6,2.32-1.81,3.36-1.69,5.07,.56,10.68,.33,15.03,2.51,8.22,4.12,16.54,3.04,25.09,2.5-1.03-.31-2.07-.61-3.1-.92,18.14,1.21,23.69,.83,28.33-2.58-3.64,0-6.75,.3-9.79-.06-6.96-.82-13.87-2.51-20.84-2.82-11.12-.49-22.28-.22-33.43-.07-1.83,.03-3.64,1.11-5.46,1.71Zm15.86,805.26c8.48,3.9,68.12-3.76,78.33-9.73-10.23,1.68-20.38,3.94-30.62,5.52-9.03,1.39-18.17,2.33-27.29,2.87-7.89,.47-15.83,.1-24.04,.1,3.45,.22,6.62,.42,9.8,.63-.01,.2-.02,.4-.03,.61h-6.15ZM319.26,51.89c21.65-6.45,43.82-13.05,65.45-19.5-5.12-2.19-60.75,14.26-65.45,19.5Zm-9.78,815.39c-.01,.46-.02,.92-.04,1.38,18.2,6.35,36.41,12.7,54.61,19.05,.15-.43,.29-.85,.44-1.28-17.64-6.62-35.27-13.25-52.93-19.81-.54-.2-1.38,.42-2.08,.65ZM423.32,45.86c-2.51-2.74-4.27-1.9-6.81-1.22-6.05,1.64-12.45,1.92-18.63,3.14-6.72,1.33-13.36,3.1-20.04,4.68,.11,.43,.22,.85,.33,1.28,14.83-2.59,29.66-5.18,45.15-7.88Zm42.14-4.31c-4.96-4.09-10.55-2.73-16.05-1.96-6.38,.89-12.75,1.9-19.2,2.87v2.04c1.56-.1,3.03-.13,4.48-.29,4.11-.45,8.23-.88,12.32-1.48,1.36-.2,2.65-1.28,3.96-1.28,1.31,0,2.63,1.3,3.91,1.24,3.47-.15,6.92-.72,10.57-1.14Zm-56.18-6.71c.07,.5,.15,1,.22,1.5,10.06-.17,19.86-2.1,29.58-4.54-.08-.56-.17-1.11-.25-1.67-9.85,1.57-19.7,3.14-29.55,4.71ZM39.07,331.3c-.85-.18-1.71-.36-2.56-.54-1.85,9.89-3.71,19.79-5.56,29.68,.52,.11,1.05,.22,1.57,.33,2.18-9.82,4.37-19.65,6.55-29.47ZM495.46,23.92c.02-.32,.05-.65,.07-.97-6.26-.97-12.53-1.95-18.79-2.92l-.27,1.51c.88,.27,1.76,.55,3.46,1.08-2.88,.25-4.83,.42-6.78,.59,0,.24,.01,.47,.02,.71h22.29Zm189.66,244.68c1.92,1.33,3.84,3.23,6.14,4.02,1.15,.39,3.56-.89,4.33-2.1,.51-.81-.56-3.07-1.52-4.16-.42-.47-2.34,.3-3.55,.62-1.57,.41-3.11,.93-5.4,1.63ZM286.93,855.52c-.18,.48-.35,.96-.53,1.44,6.97,3.27,13.95,6.54,20.92,9.81,.28-.64,.56-1.28,.85-1.92-7.08-3.11-14.16-6.22-21.24-9.33ZM623.79,226.26l-1.48,2.2c2.18,1.61,4.35,3.23,6.61,4.71,.05,.04,1.18-1.56,1.8-2.4-2.31-1.5-4.62-3-6.92-4.5ZM8.9,502.88c-.33,.1-.66,.2-.98,.3,.22,3.66,.45,7.32,.67,10.97,.52-.03,1.05-.05,1.57-.08,.38-4.15,.76-8.3,1.14-12.44-.36-.03-.73-.05-1.09-.08-.08,1.13-.16,2.25-.26,3.82-.46-1.09-.75-1.79-1.04-2.49Zm4.22,29.54c.41-.12,.83-.25,1.24-.37-.71-5.88-1.43-11.75-2.14-17.63-.4,.05-.79,.1-1.19,.15,.7,5.95,1.39,11.91,2.09,17.86ZM398.19,28.47c.18,.72,.36,1.43,.54,2.15,3.98-.67,7.97-1.34,11.95-2-.06-.42-.13-.83-.19-1.25-4.1,.37-8.2,.73-12.3,1.1Z"/><path class="cls-1" d="M748.28,110.9c4.73,4.29,9.91,8.2,14.1,12.96,6.56,7.44,12.45,15.46,17.92,24.02-3.35-2.55-6.77-5.01-10.02-7.68-10.67-8.76-20.98-17.98-32.07-26.17-3.62-2.67-9.18-2.7-13.84-3.95-1.15-.31-2.66-.34-3.36-1.1-2.71-2.94-5.01-6.25-7.74-9.16-1.98-2.11-4.4-3.82-6.34-6.67,7.17,3.02,14.31,6.08,21.51,9.03,2.55,1.04,5.21,1.81,7.82,2.7,0,0-.16-.2-.16-.2,1.99,5.83,8.28,4.81,12.16,7.62,0-.47,0-.95,0-1.42Z"/><path class="cls-1" d="M785.47,461.22c-2.41-2.11-4.17-3.65-5.94-5.2-.44,2.39-.86,4.78-1.32,7.17-.14,.73-.35,1.45-1.33,2.19-2.25-8.13-4.5-16.25-6.75-24.38-.6,.1-1.2,.19-1.8,.29,.46,4.66,.91,9.33,1.37,14-.58,.04-1.17,.09-1.75,.13-2.35-5.52-1.91-11.17-.39-16.99,1.77-6.77,4.01-13.53,4.7-20.43,.78-7.81,.02-15.77,.04-23.67,0-1.27,.58-2.54,2-4.11,.91,2.6,2.29,5.14,2.65,7.82,.84,6.24,1.53,12.55,1.6,18.84,.05,4.2-1.52,8.41-1.53,12.62,0,3.19,1.07,6.46,2.1,9.54,1.94,5.78,4.31,11.42,6.26,17.2,.48,1.42,.07,3.15,.07,4.98Z"/><path class="cls-1" d="M686.47,39.35c-8.39-3.83-16.72-7.8-25.22-11.39-2.34-.99-5.92-2.02-7.61-.94-3.84,2.45-7.07,1.06-10.27-.21-7.55-2.97-15-6.22-22.33-9.7-1.45-.69-2.17-2.9-3.22-4.41,1.7-1.03,3.49-3.03,5.09-2.89,4.73,.43,9.74,.9,14.01,2.79,15.78,6.96,31.31,14.47,46.9,21.86,1.44,.68,2.61,1.94,3.91,2.93-.42,.66-.84,1.31-1.26,1.97Z"/><path class="cls-1" d="M151.93,827.8c-5.08-2.15-9.16-4.51-11.74-10.11-2.54-5.52-9.11-8.31-14.92-10.81-2.24-.97-3.81-1.59-4.19-4.88-.28-2.4-3.87-4.39-5.93-6.61-2.9-3.13-5.69-6.37-8.64-9.45-2.43-2.52-5.41-4.59-7.46-7.37-3.03-4.11-5.45-8.67-8.13-13.04,.39-.24,.77-.49,1.16-.73,3.61,4.85,7.23,9.7,10.84,14.56,.55-.37,1.11-.74,1.66-1.11-1.87-3.12-3.74-6.25-6.24-10.42,18.4,20.59,36,40.28,53.6,59.98Z"/><path class="cls-1" d="M645.15,67.15c4.29,1.34,8.51,3.5,12.88,3.84,8.25,.65,11.75,8.83,18.95,10.93,1.33,.39,2.28,2.05,3.4,3.11-3.18,.27-6.06,.52-8.94,.77-.07,.49-.13,.98-.2,1.46,1.11,.97,2.22,1.93,3.32,2.9-.18,.38-.36,.76-.55,1.13-24.97-17.9-54.06-26.06-82.1-37.02,13.61,4.18,27.41,7.84,40.78,12.7,13.06,4.75,25.67,10.72,39.06,16.4-.41-1.22-.44-1.92-.73-2.06-7.93-3.86-14.4-10.64-23.7-11.81-.76-.1-1.37-1.34-2.05-2.05,0,0-.13-.3-.13-.3Z"/><path class="cls-1" d="M637.94,28.78c-24.11-6.34-48.35-12.72-71.46-18.81,5.02-2.01,65.33,13.18,71.46,18.81Z"/><path class="cls-1" d="M650.16,874.75c-14.61,11.69-32.7,14.83-49.29,21.65-.23-.57-.46-1.15-.69-1.72,16.66-6.64,33.32-13.29,49.98-19.93Z"/><path class="cls-1" d="M221.14,362.94c-8.36,12.05-9.43,27.11-16.44,39.73-1.62-9.91,3.67-17.83,6.91-26.32,.41-1.08,.97-2.12,1.55-3.12,.78-1.35,.09-3.8,3.09-3.64,.5,.03,1.16-3,1.77-4.6,.41-1.07,.86-2.13,1.29-3.2,.61,.39,1.23,.77,1.84,1.16Z"/><path class="cls-1" d="M645.15,67.15s.13,.3,.13,.3c-1.14-.07-2.39,.15-3.39-.25-12.22-4.88-24.4-9.85-37.01-14.97,2.05,0,4.2-.44,6.08,.08,5.1,1.42,10.07,3.32,15.13,4.89,1.67,.52,3.46,.69,5.22,.85,1.22,.11,1.06,.05,2.07,2.34,.4,.89,1.72,1.45,2.72,1.99,2.99,1.63,6.03,3.17,9.05,4.75Z"/><path class="cls-1" d="M721.82,81.59c-.93,.4-1.91,1.19-2.37,.96-10.1-5.13-20.14-10.37-30.18-15.59,.25-.55,.51-1.1,.76-1.65,5.41,2.21,10.99,4.06,16.17,6.71,5.29,2.7,10.17,6.19,15.62,9.57Z"/><path class="cls-1" d="M194.48,832.05c-10.49-8.96-20.97-17.93-31.46-26.89,.36-.48,.71-.95,1.07-1.43,3.96,2.08,6.86,5.67,10.26,8.57,3.55,3.01,7.29,5.81,10.81,8.84,3.61,3.11,7.08,6.4,10.6,9.61-.43,.43-.86,.86-1.29,1.3Z"/><path class="cls-1" d="M259.34,849.73c8.29,4.51,16.59,8.99,24.83,13.57,.91,.5,1.5,1.57,2.23,2.37-5.28-2.57-10.55-5.17-15.86-7.68-2.65-1.25-5.59-2.03-8-3.62-1.46-.96-2.16-3.06-3.21-4.64Z"/><path class="cls-1" d="M723.77,128.42c9.76,5.38,18.89,11.35,25.55,20.06-8.52-6.69-17.03-13.38-25.55-20.06Z"/><path class="cls-1" d="M640.41,270.04c-2.54-1.63-5.09-3.25-7.63-4.88,.12-.34,.23-.68,.35-1.01,1.14-.11,2.29-.21,3.21-.3v-5.18c.34-.11,.69-.23,1.03-.34,1.61,3.42,3.21,6.85,4.82,10.27-.59,.48-1.18,.97-1.78,1.45Z"/><path class="cls-1" d="M769.13,725.87c1.38-2.4,2.76-4.81,4.13-7.21,0,0-.12,.18-.12,.18,4.21-5.04,8.43-10.08,12.64-15.12,.3-.6,.6-1.19,.88-1.75,.25,.65,.92,1.59,.73,1.83-6.03,7.4-12.15,14.73-18.26,22.07Z"/><path class="cls-1" d="M697.82,104.94c8.91,1.06,12.22,8.95,18.8,12.1-.36,.52-.73,1.03-1.09,1.55-5.7-4.39-11.39-8.78-17.71-13.65Z"/><path class="cls-1" d="M726.32,49.37c-4.41-1.08-8.93-1.86-13.18-3.4-1.61-.58-2.6-2.9-3.28-5.1,5.71,2.54,11.41,5.08,17.12,7.62-.22,.29-.44,.59-.65,.88Z"/><path class="cls-1" d="M679.62,72.08c4.11,1.86,8.23,3.72,12.34,5.58,.95,1.03,1.91,2.07,2.86,3.1-.15,.38-.31,.76-.46,1.14-1.36-.55-2.8-.95-4.06-1.67-2.44-1.42-4.85-2.91-7.13-4.58-1.34-.99-2.39-2.37-3.57-3.58Z"/><path class="cls-1" d="M736.27,104.89c-1.87-2.17-3.73-4.35-5.75-6.69,6.19,1.95,11.48,5.41,15.69,10.58-3.37-1.36-6.74-2.72-10.11-4.08,0,0,.16,.2,.16,.2Z"/><path class="cls-1" d="M556.55,8.57c-8.08-.79-16.17-1.57-24.25-2.36,.01-.25,.02-.49,.04-.74,8.13,.45,16.25,.89,24.38,1.34-.06,.59-.11,1.17-.17,1.76Z"/><path class="cls-1" d="M817.64,298.52c1.76,5.51,3.53,11.02,5.29,16.52-.47,.15-.95,.3-1.42,.45-1.7-5.52-3.4-11.04-5.1-16.56,.41-.14,.82-.28,1.23-.41Z"/><path class="cls-1" d="M679.66,94.63c7.38-3,8.06,4.3,11.83,6.1-3.69-1.9-7.38-3.81-11.83-6.1Z"/><path class="cls-1" d="M517.02,2.75h-14.09c.02-.41,.04-.83,.06-1.24,4.7,.25,9.4,.51,14.1,.76l-.08,.48Z"/><path class="cls-1" d="M485.64,1.34c3.72-.45,7.45-.9,11.17-1.34,.07,.75,.15,1.51,.22,2.26-3.75,.22-7.49,.44-11.24,.66-.05-.53-.1-1.05-.15-1.58Z"/><path class="cls-1" d="M756.14,741.12c4.38-5.15,8.77-10.31,13.15-15.46-4.38,5.15-8.77,10.31-13.15,15.46Z"/><path class="cls-1" d="M53.83,678.27c-2.67-4.21-5.34-8.42-8-12.62,.33-.21,.65-.41,.98-.62,2.74,4.19,5.48,8.38,8.22,12.58-.4,.22-.8,.45-1.2,.67Z"/><path class="cls-1" d="M49.99,625.07c1.65,2.21-.74,6.75,3.91,7.3,.04,0-.07,1.2-.1,1.84-.73-.04-2,.13-2.12-.17-1.14-2.79-2.08-5.66-3.08-8.5,.46-.16,.93-.32,1.39-.48Z"/><path class="cls-1" d="M254.22,849.77c.32-.27,.64-.54,.97-.8-.32,.27-.64,.54-.97,.8Z"/><path class="cls-1" d="M785.79,703.72c-4.21,5.04-8.43,10.08-12.64,15.12,4.21-5.04,8.43-10.08,12.64-15.12Z"/></g></g></svg>